<svg width="50" height="50" viewBox="0 0 50 50" fill="none" xmlns="http://www.w3.org/2000/svg">
<g clip-path="url(#clip0)">
<path d="M45.8332 12.5C43.5321 12.5 41.6666 14.3656 41.6666 16.6667C41.6674 17.1035 41.7377 17.5374 41.8749 17.9522L38.4958 20.1C36.2709 21.5176 33.3375 21.0478 31.6666 19.0063L28.3541 14.9542C28.8813 14.2446 29.1662 13.3841 29.1666 12.5C29.1666 10.1989 27.3011 8.33337 25 8.33337C22.6988 8.33337 20.8333 10.1989 20.8333 12.5C20.8337 13.3841 21.1186 14.2446 21.6458 14.9542L18.3333 19.0063C16.6627 21.0466 13.7307 21.5163 11.5063 20.1L8.12505 17.9521C8.26226 17.5373 8.33257 17.1034 8.33335 16.6666C8.33374 14.3655 6.46862 12.4997 4.16736 12.4993C1.8662 12.4989 0.000390692 14.364 6.93186e-08 16.6653C-0.000390553 18.8254 1.65019 20.6276 3.80203 20.8166L6.26451 35.5873C6.34801 36.0896 6.78238 36.4579 7.29156 36.4581H42.7081C43.2172 36.4579 43.6516 36.0896 43.7351 35.5873L46.1976 20.8166C48.4896 20.611 50.181 18.5863 49.9754 16.2944C49.7831 14.1491 47.9872 12.5041 45.8332 12.5Z" fill="#FFC107"/>
<path d="M25.0002 40.6249C34.7802 40.6249 42.7084 38.2931 42.7084 35.4166C42.7084 32.5402 34.7802 30.2084 25.0002 30.2084C15.2202 30.2084 7.29199 32.5402 7.29199 35.4166C7.29199 38.2931 15.2202 40.6249 25.0002 40.6249Z" fill="#FFA000"/>
<path d="M24.9999 41.6665C15.6812 41.6665 6.25 39.5208 6.25 35.4166C6.25 31.3124 15.6812 29.1666 24.9999 29.1666C34.3186 29.1666 43.7498 31.3124 43.7498 35.4166C43.7498 39.5208 34.3186 41.6665 24.9999 41.6665ZM24.9999 31.2499C14.0583 31.2499 8.33329 33.9582 8.33329 35.4166C8.33329 36.875 14.0583 39.5833 24.9999 39.5833C35.9415 39.5833 41.6665 36.875 41.6665 35.4166C41.6665 33.9582 35.9414 31.2499 24.9999 31.2499Z" fill="#FFD54F"/>
<path d="M24.9999 39.5831C15.6812 39.5831 6.25 37.4373 6.25 33.3331C6.25 29.2289 15.6812 27.0831 24.9999 27.0831C34.3186 27.0831 43.7498 29.2289 43.7498 33.3331C43.7498 37.4373 34.3186 39.5831 24.9999 39.5831ZM24.9999 29.1664C14.0583 29.1664 8.33329 31.8747 8.33329 33.3331C8.33329 34.7915 14.0583 37.4998 24.9999 37.4998C35.9415 37.4998 41.6665 34.7915 41.6665 33.3331C41.6665 31.8747 35.9414 29.1664 24.9999 29.1664Z" fill="black"/>
<path d="M42.7084 34.3748C42.6505 34.375 42.5925 34.3702 42.5354 34.3603C41.9683 34.2657 41.5851 33.7295 41.6792 33.1623L44.2917 17.4854C44.3356 17.2135 44.4854 16.9701 44.7084 16.8083C44.9344 16.6504 45.2129 16.5862 45.4854 16.6291C46.6347 16.8088 47.712 16.0228 47.8916 14.8735C47.9067 14.7775 47.915 14.6805 47.9166 14.5834C47.9236 13.4328 46.9964 12.4945 45.8458 12.4876C44.6953 12.4806 43.757 13.4078 43.7501 14.5583C43.7476 14.9623 43.8627 15.3582 44.0812 15.698C44.3898 16.183 44.2472 16.8264 43.7625 17.1355L39.6145 19.775C36.4992 21.7571 32.3941 21.0977 30.0563 18.2396L26.1646 13.4834C25.8048 13.04 25.8688 12.3896 26.3084 12.0251C27.2038 11.3025 27.3439 9.9909 26.6214 9.09549C25.8988 8.20009 24.5872 8.05995 23.6918 8.7825C22.7964 9.50506 22.6562 10.8167 23.3788 11.7121C23.4717 11.8272 23.5766 11.9321 23.6918 12.0251C24.1313 12.3896 24.1954 13.0401 23.8355 13.4834L19.9439 18.2396C17.6061 21.0977 13.5008 21.7571 10.3856 19.775L6.23768 17.1375C5.75292 16.8285 5.61034 16.1851 5.91894 15.7C6.54139 14.7324 6.26161 13.4433 5.29394 12.8209C4.32627 12.1984 3.03721 12.4782 2.41476 13.4459C2.19659 13.785 2.08156 14.1801 2.08361 14.5834C2.10636 15.7488 3.06954 16.6749 4.23486 16.6522C4.32578 16.6504 4.4165 16.6427 4.50654 16.6292C4.779 16.5851 5.058 16.6495 5.28359 16.8084C5.50654 16.9702 5.65634 17.2136 5.70028 17.4855L8.31277 33.1624C8.39001 33.7326 7.99051 34.2573 7.42039 34.3345C6.8745 34.4085 6.36532 34.0446 6.25858 33.504L3.80235 18.7353C1.50998 18.5339 -0.18513 16.5123 0.0162356 14.2201C0.217602 11.9278 2.23917 10.2326 4.53144 10.434C6.68251 10.6229 8.33279 12.4239 8.33347 14.5833C8.33259 15.0201 8.26228 15.4539 8.12517 15.8687L11.5044 18.0166C13.7292 19.4342 16.6626 18.9644 18.3335 16.9229L21.648 12.8729C21.1194 12.1631 20.8338 11.3017 20.8335 10.4167C20.8335 8.11552 22.699 6.25 25.0002 6.25C27.3013 6.25 29.1668 8.11552 29.1668 10.4167C29.1661 11.301 28.8805 12.1616 28.3523 12.8709L31.6668 16.9229C33.3368 18.9639 36.269 19.4345 38.4938 18.0187L41.8751 15.8687C41.7379 15.4539 41.6676 15.0201 41.6668 14.5833C41.6676 12.2821 43.5337 10.4173 45.8348 10.418C48.136 10.4188 50.0008 12.2849 50 14.5861C49.9993 16.7454 48.3491 18.5464 46.198 18.7354L43.7355 33.504C43.6519 34.0063 43.2175 34.3745 42.7084 34.3748Z" fill="black"/>
</g>
<defs>
<clipPath id="clip0">
<rect width="50" height="50" fill="white"/>
</clipPath>
</defs>
</svg>
