<svg width="60" height="60" viewBox="0 0 60 60" fill="none" xmlns="http://www.w3.org/2000/svg">
<path d="M59.5801 26.4456C59.3772 25.2267 58.1821 24.3963 56.9107 24.5908C55.6393 24.7852 54.7731 25.9311 54.976 27.1499C54.9782 27.1633 54.9805 27.1765 54.9829 27.1898C57.3569 40.5875 47.9526 53.2934 33.9777 55.5693C20.0028 57.8453 6.74958 48.8293 4.37561 35.4315C2.00165 22.0338 11.4061 9.3279 25.3809 7.05197C33.9751 5.65237 42.7229 8.53041 48.6096 14.6944L38.2825 17.9931C37.0608 18.3828 36.4002 19.648 36.8065 20.8192C36.8066 20.8195 36.8068 20.8199 36.8069 20.8202C37.2134 21.9914 38.5332 22.6248 39.7548 22.2352C39.7553 22.2351 39.7555 22.235 39.7558 22.235L53.7428 17.7652C54.6951 17.4611 55.3375 16.6067 55.3374 15.6443V2.23494C55.3374 1.0006 54.2937 0 53.0062 0C51.7187 0 50.675 1.0006 50.675 2.23494V10.399C38.6696 -0.54803 19.6807 -0.0919271 8.2622 11.4176C-3.15634 22.9272 -2.68073 41.1318 9.32475 52.079C21.3302 63.0261 40.319 62.57 51.7377 51.0603C58.2489 44.497 61.1547 35.3767 59.5801 26.4456Z" fill="black"/>
</svg>
