<svg width="62" height="56" viewBox="0 0 62 56" fill="none" xmlns="http://www.w3.org/2000/svg">
<path d="M22.5184 22.07C26.6438 22.07 29.988 17.2925 29.988 11.3991C29.988 5.50577 26.6438 0.728271 22.5184 0.728271C18.3931 0.728271 15.0488 5.50577 15.0488 11.3991C15.0488 17.2925 18.3931 22.07 22.5184 22.07Z" fill="#FDBD40"/>
<path d="M39.5922 22.07C43.7175 22.07 47.0617 17.2925 47.0617 11.3991C47.0617 5.50577 43.7175 0.728271 39.5922 0.728271C35.4668 0.728271 32.1226 5.50577 32.1226 11.3991C32.1226 17.2925 35.4668 22.07 39.5922 22.07Z" fill="#FDBD40"/>
<path d="M12.9146 24.2042C12.9146 30.0977 12.1826 34.875 8.6463 34.875C5.10998 34.875 0.109619 30.0977 0.109619 24.2042C0.109619 18.3107 2.97581 13.5333 6.51213 13.5333C10.0484 13.5333 12.9146 18.3107 12.9146 24.2042Z" fill="#FDBD40"/>
<path d="M62.0003 24.2042C62.0003 30.0977 57 34.875 53.4637 34.875C49.9273 34.875 49.1953 30.0977 49.1953 24.2042C49.1953 18.3107 52.0615 13.5333 55.5978 13.5333C59.1341 13.5333 62.0003 18.3107 62.0003 24.2042Z" fill="#FDBD40"/>
<path d="M48.1284 42.4972C48.1284 48.8901 44.8204 54.2618 37.4576 55.7845C36.0938 56.0662 32.5287 49.8142 31.055 49.8142C29.5814 49.8142 26.0163 56.0662 24.6525 55.7845C17.2897 54.2618 13.9817 48.8901 13.9817 42.4972C13.9817 34.9198 21.6252 24.2042 31.055 24.2042C40.4849 24.2042 48.1284 34.9198 48.1284 42.4972Z" fill="#FDBD40"/>
</svg>
