<svg width="200" height="200" viewBox="0 0 200 200" fill="none" xmlns="http://www.w3.org/2000/svg">
<path d="M100 16.6667C54.0002 16.6667 16.6669 54 16.6669 100C16.6669 146 54.0002 183.333 100 183.333C146 183.333 183.334 146 183.334 100C183.334 54 146 16.6667 100 16.6667ZM100 41.6667C113.834 41.6667 125 52.8334 125 66.6667C125 80.5 113.834 91.6667 100 91.6667C86.1669 91.6667 75.0002 80.5 75.0002 66.6667C75.0002 52.8334 86.1669 41.6667 100 41.6667ZM100 160C79.1669 160 60.7502 149.333 50.0002 133.167C50.2502 116.583 83.3335 107.5 100 107.5C116.584 107.5 149.75 116.583 150 133.167C139.25 149.333 120.834 160 100 160Z" fill="black"/>
</svg>
