<?xml version="1.0" encoding="UTF-8" standalone="no"?>
<svg
   xmlns:dc="http://purl.org/dc/elements/1.1/"
   xmlns:cc="http://creativecommons.org/ns#"
   xmlns:rdf="http://www.w3.org/1999/02/22-rdf-syntax-ns#"
   xmlns:svg="http://www.w3.org/2000/svg"
   xmlns="http://www.w3.org/2000/svg"
   xmlns:sodipodi="http://sodipodi.sourceforge.net/DTD/sodipodi-0.dtd"
   xmlns:inkscape="http://www.inkscape.org/namespaces/inkscape"
   width="166.6671"
   height="166.66631"
   viewBox="0 0 166.6671 166.66631"
   fill="none"
   version="1.1"
   id="svg4"
   sodipodi:docname="perfil.svg"
   inkscape:version="1.0.2 (e86c870879, 2021-01-15)">
  <metadata
     id="metadata10">
    <rdf:RDF>
      <cc:Work
         rdf:about="">
        <dc:format>image/svg+xml</dc:format>
        <dc:type
           rdf:resource="http://purl.org/dc/dcmitype/StillImage" />
      </cc:Work>
    </rdf:RDF>
  </metadata>
  <defs
     id="defs8" />
  <sodipodi:namedview
     pagecolor="#ffffff"
     bordercolor="#666666"
     borderopacity="1"
     objecttolerance="10"
     gridtolerance="10"
     guidetolerance="10"
     inkscape:pageopacity="0"
     inkscape:pageshadow="2"
     inkscape:window-width="944"
     inkscape:window-height="508"
     id="namedview6"
     showgrid="false"
     inkscape:zoom="1.06375"
     inkscape:cx="18.360595"
     inkscape:cy="138.00511"
     inkscape:window-x="964"
     inkscape:window-y="527"
     inkscape:window-maximized="0"
     inkscape:current-layer="svg4" />
  <path
     d="M 83.3331,0 C 37.3333,0 0,37.3333 0,83.3333 c 0,46 37.3333,83.333 83.3331,83.333 46,0 83.334,-37.333 83.334,-83.333 0,-46 -37.334,-83.3333 -83.334,-83.3333 z m 0,25 c 13.834,0 25,11.1667 25,25 0,13.8333 -11.166,25 -25,25 C 69.5,75 58.3333,63.8333 58.3333,50 58.3333,36.1667 69.5,25 83.3331,25 Z m 0,118.3333 c -20.8331,0 -39.2498,-10.667 -49.9998,-26.833 0.25,-16.584 33.3333,-25.667 49.9998,-25.667 16.584,0 49.75,9.083 50,25.667 -10.75,16.166 -29.166,26.833 -50,26.833 z"
     fill="#000000"
     id="path2" />
</svg>
