<svg width="133" height="133" viewBox="0 0 133 133" fill="none" xmlns="http://www.w3.org/2000/svg">
<path d="M118.851 15.5638V4.24466H11.3191V15.5638L0 55.1808V61.6667C0 67.5668 3.50045 72.8246 8.48936 75.4506C8.48936 92.9217 8.48936 128.755 8.48936 128.755H31.1277V83.4787H53.766V128.755H121.681V76.6023C128.127 74.6979 133 68.6308 133 61.6667V55.1808L118.851 15.5638ZM15.5638 71.571C10.9003 71.571 5.65957 67.83 5.65957 60.8404H25.4681C25.4681 67.8187 20.233 71.571 15.5638 71.571ZM96.2128 15.5638L101.872 55.1808C90.7711 55.1808 90.2108 55.1808 82.0638 55.1808L79.234 15.5638H96.2128ZM101.872 60.8404C101.872 67.7734 96.6768 71.571 91.9681 71.571C87.1546 71.571 82.0638 67.6857 82.0638 60.8404H101.872ZM41.0319 71.571C36.3684 71.571 31.1277 67.83 31.1277 60.8404H50.9362C50.9362 67.8187 45.7011 71.571 41.0319 71.571ZM50.9362 55.1808C43.0637 55.1808 41.9544 55.1808 31.1277 55.1808L36.7872 15.5638H53.766L50.9362 55.1808ZM56.5957 60.8404H76.4043C76.4043 67.8187 71.1692 71.571 66.5 71.571C61.8365 71.571 56.5957 67.83 56.5957 60.8404ZM110.362 117.436H65.0851V83.4787H110.362V117.436ZM117.436 71.571C112.623 71.571 107.532 67.6857 107.532 60.8404H127.34C127.34 67.7734 122.145 71.571 117.436 71.571Z" fill="black"/>
</svg>
